<svg width="1440" height="170" viewBox="0 0 1440 170" fill="none" xmlns="http://www.w3.org/2000/svg">
<path d="M58.191 32.103H0V0H159.298V32.103H100.925V135.708H58.191V32.103Z" fill="black"/>
<path d="M240.779 89.0129L202.046 95.0322C196.833 95.8834 193.075 96.917 190.771 98.133C188.468 99.3491 187.316 101.355 187.316 104.152V104.335C187.316 105.672 187.559 107.01 188.044 108.348C188.65 109.685 189.62 110.901 190.953 111.996C192.408 112.969 194.227 113.82 196.409 114.549C198.712 115.157 201.622 115.461 205.137 115.461C210.593 115.461 215.503 114.793 219.867 113.455C224.231 112.117 227.929 110.354 230.96 108.165C234.112 105.976 236.536 103.484 238.233 100.687C239.931 97.8898 240.779 95.0322 240.779 92.1137V89.0129ZM241.87 122.21C240.779 123.548 239.143 125.068 236.96 126.77C234.778 128.473 231.869 130.175 228.232 131.878C224.716 133.459 220.352 134.796 215.139 135.891C210.047 136.985 203.864 137.532 196.591 137.532H194.227C185.983 137.532 178.951 136.681 173.132 134.979C167.434 133.155 162.767 130.783 159.13 127.865C155.493 124.825 152.826 121.42 151.129 117.65C149.553 113.759 148.765 109.685 148.765 105.429V104.152C148.765 95.1538 151.917 88.3441 158.221 83.7232C164.646 79.1023 175.193 76.123 189.862 74.7854L234.596 70.5901C236.9 70.3469 238.476 69.8605 239.324 69.1309C240.294 68.2797 240.779 67.0637 240.779 65.4828C240.779 64.6316 240.537 63.7196 240.052 62.7468C239.688 61.774 238.658 60.9227 236.96 60.1931C235.263 59.3419 232.717 58.6731 229.323 58.1867C225.928 57.7003 221.261 57.4571 215.321 57.4571H214.411C208.35 57.4571 203.622 57.8827 200.227 58.7339C196.833 59.5851 194.287 60.6187 192.59 61.8348C191.014 62.9292 189.983 64.0844 189.498 65.3004C189.135 66.5164 188.892 67.5501 188.771 68.4013H151.129V68.0365C151.129 65.8476 151.311 63.5372 151.674 61.1051C152.038 58.5515 152.826 56.0587 154.038 53.6266C155.372 51.1946 157.312 48.8841 159.857 46.6953C162.403 44.3848 165.798 42.3784 170.041 40.676C174.405 38.8519 179.8 37.4535 186.225 36.4807C192.65 35.3863 200.409 34.8391 209.502 34.8391H219.503C233.687 34.8391 244.78 35.8119 252.781 37.7575C260.904 39.7031 266.965 42.2568 270.966 45.4184C274.966 48.4585 277.452 51.8634 278.422 55.633C279.391 59.4027 279.876 63.0508 279.876 66.5773V104.152C279.876 105.612 280.179 106.828 280.786 107.8C281.513 108.652 282.907 109.077 284.968 109.077H290.242V135.708H257.327C253.448 135.708 250.053 134.614 247.144 132.425C244.356 130.236 242.598 126.831 241.87 122.21Z" fill="black"/>
<path d="M299.844 37.5751H340.032V54.3562C341.244 53.1402 343.063 51.4986 345.487 49.4313C348.033 47.2425 351.246 45.1144 355.125 43.0472C359.126 40.98 363.854 39.2167 369.309 37.7575C374.886 36.1767 381.311 35.3863 388.585 35.3863H389.858C398.344 35.3863 405.618 36.4807 411.68 38.6695C417.741 40.8584 422.651 43.7768 426.409 47.4249C430.289 51.073 433.077 55.2074 434.774 59.8283C436.593 64.3276 437.502 68.9485 437.502 73.691V135.708H396.586V87.1888C396.586 79.6495 394.465 73.691 390.222 69.3133C385.979 64.9356 379.372 62.7468 370.4 62.7468C361.308 62.7468 354.034 65.1788 348.579 70.0429C343.123 74.907 340.396 81.3519 340.396 89.3777V135.708H299.844V37.5751Z" fill="black"/>
<path d="M459.977 140.815H482.89C484.829 140.815 486.102 140.511 486.708 139.903C487.315 139.417 487.618 138.687 487.618 137.715C487.618 136.742 487.193 135.465 486.345 133.884C485.617 132.303 484.526 130.114 483.072 127.318L436.337 37.5751H479.98L511.44 103.97L541.99 37.5751H582.724L531.443 142.275C529.139 146.896 526.775 150.908 524.351 154.313C522.047 157.84 519.441 160.758 516.531 163.069C513.743 165.379 510.591 167.082 507.075 168.176C503.681 169.392 499.801 170 495.437 170H459.977V140.815Z" fill="black"/>
<path d="M672.133 89.0129L633.399 95.0322C628.186 95.8834 624.428 96.917 622.125 98.133C619.821 99.3491 618.669 101.355 618.669 104.152V104.335C618.669 105.672 618.912 107.01 619.397 108.348C620.003 109.685 620.973 110.901 622.306 111.996C623.761 112.969 625.58 113.82 627.762 114.549C630.065 115.157 632.975 115.461 636.49 115.461C641.946 115.461 646.856 114.793 651.22 113.455C655.584 112.117 659.282 110.354 662.313 108.165C665.465 105.976 667.889 103.484 669.587 100.687C671.284 97.8898 672.133 95.0322 672.133 92.1137V89.0129ZM673.224 122.21C672.132 123.548 670.496 125.068 668.314 126.77C666.132 128.473 663.222 130.175 659.585 131.878C656.069 133.459 651.705 134.796 646.492 135.891C641.4 136.985 635.218 137.532 627.944 137.532H625.58C617.336 137.532 610.305 136.681 604.485 134.979C598.788 133.155 594.12 130.783 590.483 127.865C586.846 124.825 584.179 121.42 582.482 117.65C580.906 113.759 580.118 109.685 580.118 105.429V104.152C580.118 95.1538 583.27 88.3441 589.574 83.7232C595.999 79.1023 606.546 76.123 621.215 74.7854L665.95 70.5901C668.253 70.3469 669.829 69.8605 670.678 69.1309C671.648 68.2797 672.133 67.0637 672.133 65.4828C672.133 64.6316 671.89 63.7196 671.405 62.7468C671.041 61.774 670.011 60.9227 668.314 60.1931C666.617 59.3419 664.071 58.6731 660.676 58.1867C657.282 57.7003 652.614 57.4571 646.674 57.4571H645.765C639.703 57.4571 634.975 57.8827 631.581 58.7339C628.186 59.5851 625.64 60.6187 623.943 61.8348C622.367 62.9292 621.337 64.0844 620.852 65.3004C620.488 66.5164 620.246 67.5501 620.124 68.4013H582.482V68.0365C582.482 65.8476 582.664 63.5372 583.028 61.1051C583.391 58.5515 584.179 56.0587 585.392 53.6266C586.725 51.1946 588.665 48.8841 591.211 46.6953C593.757 44.3848 597.151 42.3784 601.394 40.676C605.758 38.8519 611.153 37.4535 617.578 36.4807C624.004 35.3863 631.763 34.8391 640.855 34.8391H650.856C665.04 34.8391 676.133 35.8119 684.134 37.7575C692.257 39.7031 698.318 42.2568 702.319 45.4184C706.32 48.4585 708.805 51.8634 709.775 55.633C710.745 59.4027 711.229 63.0508 711.229 66.5773V104.152C711.229 105.612 711.533 106.828 712.139 107.8C712.866 108.652 714.26 109.077 716.321 109.077H721.595V135.708H688.681C684.801 135.708 681.407 134.614 678.497 132.425C675.709 130.236 673.951 126.831 673.224 122.21Z" fill="black"/>
<path d="M841.872 32.103H783.681V0H942.979V32.103H884.606V135.708H841.872V32.103Z" fill="black"/>
<path d="M997.104 28.0901H956.552V0H997.104V28.0901ZM997.104 135.708H956.552V37.5751H997.104V135.708Z" fill="black"/>
<path d="M1014.27 135.708V37.5751H1054.46V54.5386C1055.55 53.4442 1057.24 51.8026 1059.55 49.6137C1061.85 47.4249 1064.88 45.2969 1068.64 43.2296C1072.52 41.1624 1077.13 39.3383 1082.46 37.7575C1087.79 36.1767 1093.98 35.3863 1101.01 35.3863H1102.28C1112.71 35.3863 1121.07 37.2711 1127.38 41.0408C1133.68 44.8104 1138.35 49.4313 1141.38 54.9034C1143.2 53.0794 1145.56 51.073 1148.47 48.8841C1151.38 46.5737 1154.83 44.4456 1158.84 42.5C1162.96 40.4328 1167.62 38.7303 1172.84 37.3927C1178.17 36.0551 1184.11 35.3863 1190.66 35.3863H1192.11C1200.24 35.3863 1207.15 36.5415 1212.84 38.8519C1218.54 41.0408 1223.21 43.9592 1226.85 47.6073C1230.48 51.2554 1233.09 55.3898 1234.67 60.0107C1236.36 64.51 1237.21 69.0701 1237.21 73.691V135.708H1196.3V87.1888C1196.3 80.0143 1194.6 74.1774 1191.2 69.6781C1187.81 65.0572 1182.11 62.7468 1174.11 62.7468C1169.75 62.7468 1165.81 63.4156 1162.29 64.7532C1158.9 66.0908 1155.99 67.9757 1153.56 70.4077C1151.14 72.7182 1149.26 75.515 1147.92 78.7983C1146.71 82.0815 1146.11 85.608 1146.11 89.3777V135.708H1105.19V87.1888C1105.19 80.0143 1103.43 74.1774 1099.92 69.6781C1096.52 65.0572 1090.82 62.7468 1082.82 62.7468C1078.46 62.7468 1074.52 63.4156 1071 64.7532C1067.61 66.0908 1064.7 67.9757 1062.27 70.4077C1059.85 72.7182 1057.97 75.515 1056.64 78.7983C1055.43 82.0815 1054.82 85.608 1054.82 89.3777V135.708H1014.27Z" fill="black"/>
<path d="M1340.38 89.0129L1301.65 95.0322C1296.44 95.8834 1292.68 96.917 1290.38 98.133C1288.07 99.3491 1286.92 101.355 1286.92 104.152V104.335C1286.92 105.672 1287.16 107.01 1287.65 108.348C1288.25 109.685 1289.22 110.901 1290.56 111.996C1292.01 112.969 1293.83 113.82 1296.01 114.549C1298.32 115.157 1301.23 115.461 1304.74 115.461C1310.2 115.461 1315.11 114.793 1319.47 113.455C1323.84 112.117 1327.53 110.354 1330.56 108.165C1333.72 105.976 1336.14 103.484 1337.84 100.687C1339.54 97.8898 1340.38 95.0322 1340.38 92.1137V89.0129ZM1341.47 122.21C1340.38 123.548 1338.75 125.068 1336.56 126.77C1334.38 128.473 1331.47 130.175 1327.84 131.878C1324.32 133.459 1319.96 134.796 1314.74 135.891C1309.65 136.985 1303.47 137.532 1296.19 137.532H1293.83C1285.59 137.532 1278.56 136.681 1272.74 134.979C1267.04 133.155 1262.37 130.783 1258.73 127.865C1255.1 124.825 1252.43 121.42 1250.73 117.65C1249.16 113.759 1248.37 109.685 1248.37 105.429V104.152C1248.37 95.1538 1251.52 88.3441 1257.83 83.7232C1264.25 79.1023 1274.8 76.123 1289.47 74.7854L1334.2 70.5901C1336.5 70.3469 1338.08 69.8605 1338.93 69.1309C1339.9 68.2797 1340.38 67.0637 1340.38 65.4828C1340.38 64.6316 1340.14 63.7196 1339.66 62.7468C1339.29 61.774 1338.26 60.9227 1336.56 60.1931C1334.87 59.3419 1332.32 58.6731 1328.93 58.1867C1325.53 57.7003 1320.87 57.4571 1314.93 57.4571H1314.02C1307.95 57.4571 1303.23 57.8827 1299.83 58.7339C1296.44 59.5851 1293.89 60.6187 1292.19 61.8348C1290.62 62.9292 1289.59 64.0844 1289.1 65.3004C1288.74 66.5164 1288.5 67.5501 1288.38 68.4013H1250.73V68.0365C1250.73 65.8476 1250.92 63.5372 1251.28 61.1051C1251.64 58.5515 1252.43 56.0587 1253.64 53.6266C1254.98 51.1946 1256.92 48.8841 1259.46 46.6953C1262.01 44.3848 1265.4 42.3784 1269.65 40.676C1274.01 38.8519 1279.4 37.4535 1285.83 36.4807C1292.25 35.3863 1300.01 34.8391 1309.11 34.8391H1319.11C1333.29 34.8391 1344.38 35.8119 1352.39 37.7575C1360.51 39.7031 1366.57 42.2568 1370.57 45.4184C1374.57 48.4585 1377.06 51.8634 1378.03 55.633C1379 59.4027 1379.48 63.0508 1379.48 66.5773V104.152C1379.48 105.612 1379.78 106.828 1380.39 107.8C1381.12 108.652 1382.51 109.077 1384.57 109.077H1389.85V135.708H1356.93C1353.05 135.708 1349.66 134.614 1346.75 132.425C1343.96 130.236 1342.2 126.831 1341.47 122.21Z" fill="black"/>
<path d="M1440 135.708H1399.45V0H1440V135.708Z" fill="black"/>
</svg>
