<svg width="119" height="14" viewBox="0 0 119 14" fill="none" xmlns="http://www.w3.org/2000/svg">
<path d="M4.80884 2.64378H0V0H13.1642V2.64378H8.34032V11.176H4.80884V2.64378Z" fill="black"/>
<path d="M19.8977 7.33047L16.6968 7.82618C16.2661 7.89628 15.9555 7.9814 15.7651 8.08154C15.5748 8.18169 15.4796 8.34692 15.4796 8.57725V8.59227C15.4796 8.70243 15.4996 8.81259 15.5397 8.92275C15.5898 9.0329 15.67 9.13305 15.7802 9.22318C15.9004 9.30329 16.0507 9.37339 16.231 9.43348C16.4213 9.48355 16.6618 9.50858 16.9523 9.50858C17.4031 9.50858 17.8089 9.45351 18.1696 9.34335C18.5302 9.23319 18.8358 9.08798 19.0862 8.90773C19.3467 8.72747 19.5471 8.52217 19.6873 8.29185C19.8276 8.06152 19.8977 7.82618 19.8977 7.58584V7.33047ZM19.9879 10.0644C19.8977 10.1745 19.7625 10.2997 19.5822 10.4399C19.4018 10.5801 19.1614 10.7203 18.8608 10.8605C18.5703 10.9907 18.2096 11.1009 17.7788 11.191C17.3581 11.2811 16.8471 11.3262 16.246 11.3262H16.0507C15.3694 11.3262 14.7883 11.2561 14.3075 11.1159C13.8366 10.9657 13.4509 10.7704 13.1503 10.53C12.8498 10.2797 12.6294 9.99929 12.4891 9.68884C12.3589 9.36838 12.2938 9.0329 12.2938 8.6824V8.57725C12.2938 7.83619 12.5542 7.27539 13.0752 6.89485C13.6062 6.51431 14.4778 6.26896 15.69 6.1588L19.3868 5.8133C19.5771 5.79328 19.7074 5.75322 19.7775 5.69313C19.8577 5.62303 19.8977 5.52289 19.8977 5.3927C19.8977 5.3226 19.8777 5.2475 19.8376 5.16738C19.8076 5.08727 19.7224 5.01717 19.5822 4.95708C19.4419 4.88698 19.2315 4.8319 18.951 4.79185C18.6705 4.75179 18.2848 4.73176 17.7939 4.73176H17.7187C17.2178 4.73176 16.8271 4.76681 16.5466 4.83691C16.2661 4.90701 16.0557 4.99213 15.9154 5.09227C15.7852 5.1824 15.7 5.27754 15.6599 5.37768C15.6299 5.47783 15.6099 5.56295 15.5998 5.63305H12.4891V5.603C12.4891 5.42275 12.5041 5.23247 12.5342 5.03219C12.5643 4.82189 12.6294 4.6166 12.7296 4.41631C12.8398 4.21602 13.0001 4.02575 13.2104 3.84549C13.4208 3.65522 13.7013 3.48999 14.052 3.34979C14.4127 3.19957 14.8585 3.08441 15.3894 3.00429C15.9204 2.91416 16.5616 2.8691 17.313 2.8691H18.1395C19.3117 2.8691 20.2283 2.94921 20.8896 3.10944C21.5608 3.26967 22.0617 3.47997 22.3923 3.74034C22.7229 3.9907 22.9283 4.2711 23.0084 4.58154C23.0886 4.89199 23.1287 5.19242 23.1287 5.48283V8.57725C23.1287 8.69742 23.1537 8.79757 23.2038 8.87768C23.2639 8.94778 23.3791 8.98283 23.5494 8.98283H23.9852V11.176H21.2652C20.9447 11.176 20.6641 11.0858 20.4237 10.9056C20.1933 10.7253 20.048 10.4449 19.9879 10.0644Z" fill="black"/>
<path d="M24.7788 3.09442H28.0999V4.4764C28.2001 4.37625 28.3503 4.24106 28.5507 4.07082C28.7611 3.89056 29.0266 3.71531 29.3472 3.54506C29.6778 3.37482 30.0685 3.22961 30.5193 3.10944C30.9802 2.97926 31.5111 2.91416 32.1122 2.91416H32.2174C32.9187 2.91416 33.5198 3.00429 34.0207 3.18455C34.5217 3.36481 34.9274 3.60515 35.238 3.90558C35.5586 4.20601 35.789 4.5465 35.9293 4.92704C36.0795 5.29757 36.1547 5.67811 36.1547 6.06867V11.176H32.7735V7.18026C32.7735 6.55937 32.5981 6.06867 32.2475 5.70815C31.8968 5.34764 31.3508 5.16738 30.6095 5.16738C29.8581 5.16738 29.257 5.36767 28.8062 5.76824C28.3553 6.16881 28.1299 6.69957 28.1299 7.36052V11.176H24.7788V3.09442Z" fill="black"/>
<path d="M38.012 11.5966H39.9055C40.0658 11.5966 40.171 11.5715 40.221 11.5215C40.2711 11.4814 40.2962 11.4213 40.2962 11.3412C40.2962 11.2611 40.2611 11.1559 40.191 11.0258C40.1309 10.8956 40.0407 10.7153 39.9205 10.485L36.0584 3.09442H39.665L42.2648 8.56223L44.7894 3.09442H48.1556L43.9178 11.7167C43.7275 12.0973 43.5321 12.4278 43.3318 12.7082C43.1414 12.9986 42.926 13.2389 42.6856 13.4292C42.4551 13.6195 42.1947 13.7597 41.9041 13.8498C41.6236 13.9499 41.303 14 40.9424 14H38.012V11.5966Z" fill="black"/>
<path d="M55.5443 7.33047L52.3434 7.82618C51.9126 7.89628 51.602 7.9814 51.4117 8.08154C51.2213 8.18169 51.1262 8.34692 51.1262 8.57725V8.59227C51.1262 8.70243 51.1462 8.81259 51.1863 8.92275C51.2364 9.0329 51.3165 9.13305 51.4267 9.22318C51.5469 9.30329 51.6972 9.37339 51.8775 9.43348C52.0679 9.48355 52.3083 9.50858 52.5989 9.50858C53.0497 9.50858 53.4554 9.45351 53.8161 9.34335C54.1768 9.23319 54.4823 9.08798 54.7328 8.90773C54.9933 8.72747 55.1936 8.52217 55.3339 8.29185C55.4742 8.06152 55.5443 7.82618 55.5443 7.58584V7.33047ZM55.6344 10.0644C55.5443 10.1745 55.409 10.2997 55.2287 10.4399C55.0484 10.5801 54.8079 10.7203 54.5074 10.8605C54.2168 10.9907 53.8562 11.1009 53.4254 11.191C53.0046 11.2811 52.4937 11.3262 51.8926 11.3262H51.6972C51.016 11.3262 50.4349 11.2561 49.954 11.1159C49.4831 10.9657 49.0974 10.7704 48.7969 10.53C48.4963 10.2797 48.2759 9.99929 48.1357 9.68884C48.0054 9.36838 47.9403 9.0329 47.9403 8.6824V8.57725C47.9403 7.83619 48.2008 7.27539 48.7217 6.89485C49.2527 6.51431 50.1243 6.26896 51.3366 6.1588L55.0333 5.8133C55.2237 5.79328 55.3539 5.75322 55.4241 5.69313C55.5042 5.62303 55.5443 5.52289 55.5443 5.3927C55.5443 5.3226 55.5242 5.2475 55.4842 5.16738C55.4541 5.08727 55.369 5.01717 55.2287 4.95708C55.0884 4.88698 54.8781 4.8319 54.5975 4.79185C54.317 4.75179 53.9313 4.73176 53.4404 4.73176H53.3653C52.8644 4.73176 52.4736 4.76681 52.1931 4.83691C51.9126 4.90701 51.7022 4.99213 51.562 5.09227C51.4317 5.1824 51.3466 5.27754 51.3065 5.37768C51.2764 5.47783 51.2564 5.56295 51.2464 5.63305H48.1357V5.603C48.1357 5.42275 48.1507 5.23247 48.1808 5.03219C48.2108 4.82189 48.2759 4.6166 48.3761 4.41631C48.4863 4.21602 48.6466 4.02575 48.857 3.84549C49.0674 3.65522 49.3479 3.48999 49.6985 3.34979C50.0592 3.19957 50.505 3.08441 51.036 3.00429C51.567 2.91416 52.2081 2.8691 52.9595 2.8691H53.786C54.9582 2.8691 55.8749 2.94921 56.5361 3.10944C57.2073 3.26967 57.7083 3.47997 58.0389 3.74034C58.3695 3.9907 58.5748 4.2711 58.655 4.58154C58.7351 4.89199 58.7752 5.19242 58.7752 5.48283V8.57725C58.7752 8.69742 58.8003 8.79757 58.8504 8.87768C58.9105 8.94778 59.0257 8.98283 59.196 8.98283H59.6318V11.176H56.9118C56.5912 11.176 56.3107 11.0858 56.0702 10.9056C55.8398 10.7253 55.6946 10.4449 55.6344 10.0644Z" fill="black"/>
<path d="M69.5714 2.64378H64.7625V0H77.9267V2.64378H73.1029V11.176H69.5714V2.64378Z" fill="black"/>
<path d="M82.3996 2.3133H79.0484V0H82.3996V2.3133ZM82.3996 11.176H79.0484V3.09442H82.3996V11.176Z" fill="black"/>
<path d="M83.8179 11.176V3.09442H87.139V4.49142C87.2292 4.40129 87.3694 4.26609 87.5598 4.08584C87.7501 3.90558 88.0006 3.73033 88.3112 3.56009C88.6318 3.38984 89.0125 3.23963 89.4533 3.10944C89.8941 2.97926 90.405 2.91416 90.9861 2.91416H91.0913C91.9529 2.91416 92.6441 3.06938 93.1651 3.37983C93.686 3.69027 94.0717 4.07082 94.3222 4.52146C94.4725 4.37124 94.6678 4.20601 94.9083 4.02575C95.1487 3.83548 95.4342 3.66023 95.7649 3.5C96.1055 3.32976 96.4912 3.18956 96.922 3.0794C97.3628 2.96924 97.8537 2.91416 98.3947 2.91416H98.5149C99.1861 2.91416 99.7572 3.0093 100.228 3.19957C100.699 3.37983 101.085 3.62017 101.385 3.9206C101.686 4.22103 101.901 4.56152 102.031 4.94206C102.172 5.31259 102.242 5.68813 102.242 6.06867V11.176H98.8605V7.18026C98.8605 6.58941 98.7203 6.10873 98.4398 5.7382C98.1593 5.35765 97.6884 5.16738 97.0272 5.16738C96.6665 5.16738 96.3409 5.22246 96.0504 5.33262C95.7699 5.44278 95.5294 5.598 95.3291 5.79828C95.1287 5.98856 94.9734 6.21888 94.8632 6.48927C94.763 6.75966 94.7129 7.05007 94.7129 7.36052V11.176H91.3317V7.18026C91.3317 6.58941 91.1864 6.10873 90.8959 5.7382C90.6154 5.35765 90.1445 5.16738 89.4833 5.16738C89.1227 5.16738 88.7971 5.22246 88.5065 5.33262C88.226 5.44278 87.9856 5.598 87.7852 5.79828C87.5848 5.98856 87.4295 6.21888 87.3193 6.48927C87.2192 6.75966 87.1691 7.05007 87.1691 7.36052V11.176H83.8179Z" fill="black"/>
<path d="M110.768 7.33047L107.567 7.82618C107.136 7.89628 106.826 7.9814 106.635 8.08154C106.445 8.18169 106.35 8.34692 106.35 8.57725V8.59227C106.35 8.70243 106.37 8.81259 106.41 8.92275C106.46 9.0329 106.54 9.13305 106.65 9.22318C106.77 9.30329 106.921 9.37339 107.101 9.43348C107.291 9.48355 107.532 9.50858 107.822 9.50858C108.273 9.50858 108.679 9.45351 109.04 9.34335C109.4 9.23319 109.706 9.08798 109.956 8.90773C110.217 8.72747 110.417 8.52217 110.557 8.29185C110.698 8.06152 110.768 7.82618 110.768 7.58584V7.33047ZM110.858 10.0644C110.768 10.1745 110.633 10.2997 110.452 10.4399C110.272 10.5801 110.031 10.7203 109.731 10.8605C109.44 10.9907 109.08 11.1009 108.649 11.191C108.228 11.2811 107.717 11.3262 107.116 11.3262H106.921C106.239 11.3262 105.658 11.2561 105.178 11.1159C104.707 10.9657 104.321 10.7704 104.02 10.53C103.72 10.2797 103.499 9.99929 103.359 9.68884C103.229 9.36838 103.164 9.0329 103.164 8.6824V8.57725C103.164 7.83619 103.424 7.27539 103.945 6.89485C104.476 6.51431 105.348 6.26896 106.56 6.1588L110.257 5.8133C110.447 5.79328 110.577 5.75322 110.648 5.69313C110.728 5.62303 110.768 5.52289 110.768 5.3927C110.768 5.3226 110.748 5.2475 110.708 5.16738C110.678 5.08727 110.592 5.01717 110.452 4.95708C110.312 4.88698 110.102 4.8319 109.821 4.79185C109.541 4.75179 109.155 4.73176 108.664 4.73176H108.589C108.088 4.73176 107.697 4.76681 107.417 4.83691C107.136 4.90701 106.926 4.99213 106.785 5.09227C106.655 5.1824 106.57 5.27754 106.53 5.37768C106.5 5.47783 106.48 5.56295 106.47 5.63305H103.359V5.603C103.359 5.42275 103.374 5.23247 103.404 5.03219C103.434 4.82189 103.499 4.6166 103.6 4.41631C103.71 4.21602 103.87 4.02575 104.081 3.84549C104.291 3.65522 104.571 3.48999 104.922 3.34979C105.283 3.19957 105.729 3.08441 106.26 3.00429C106.791 2.91416 107.432 2.8691 108.183 2.8691H109.01C110.182 2.8691 111.098 2.94921 111.76 3.10944C112.431 3.26967 112.932 3.47997 113.262 3.74034C113.593 3.9907 113.798 4.2711 113.879 4.58154C113.959 4.89199 113.999 5.19242 113.999 5.48283V8.57725C113.999 8.69742 114.024 8.79757 114.074 8.87768C114.134 8.94778 114.249 8.98283 114.42 8.98283H114.855V11.176H112.135C111.815 11.176 111.534 11.0858 111.294 10.9056C111.063 10.7253 110.918 10.4449 110.858 10.0644Z" fill="black"/>
<path d="M119 11.176H115.649V0H119V11.176Z" fill="black"/>
</svg>
